<?xml version="1.0" standalone="no"?>
<!DOCTYPE svg PUBLIC "-//W3C//DTD SVG 20010904//EN"
 "http://www.w3.org/TR/2001/REC-SVG-20010904/DTD/svg10.dtd">
<svg version="1.0" xmlns="http://www.w3.org/2000/svg"
 width="926.000000pt" height="1080.000000pt" viewBox="0 0 926.000000 1080.000000"
 preserveAspectRatio="xMidYMid meet">
<metadata>
Created by potrace 1.16, written by Peter Selinger 2001-2019
</metadata>
<g transform="translate(0.000000,1080.000000) scale(0.100000,-0.100000)"
fill="#000000" stroke="none">
<path d="M0 7186 l0 -3615 27 -21 c18 -14 35 -19 50 -15 24 6 107 -18 131 -37
12 -10 41 -17 137 -34 17 -3 39 -9 50 -14 21 -10 246 -28 265 -22 5 2 8 7 5
12 -6 9 43 6 67 -4 10 -5 30 -1 49 8 18 9 42 16 55 16 13 0 36 13 52 28 16 16
37 32 46 35 21 8 33 40 18 45 -7 2 -12 15 -12 28 0 40 -21 112 -36 125 -8 6
-14 20 -14 31 0 11 -7 26 -15 34 -8 9 -15 26 -15 38 0 31 -26 93 -42 99 -10 4
-10 8 1 15 12 8 12 13 2 25 -7 9 -8 18 -2 21 5 3 7 14 4 25 -5 20 31 61 53 61
7 0 16 9 19 21 4 11 20 25 36 31 38 13 40 41 2 32 -22 -4 -25 -3 -13 5 11 8
12 11 2 11 -22 0 -8 24 19 31 l24 7 -23 1 c-21 1 -23 5 -17 31 7 31 -2 39 -23
18 -8 -8 -12 -8 -12 -1 0 6 7 16 15 23 8 7 15 24 15 39 0 14 4 32 9 40 6 9 4
22 -5 36 -8 13 -15 50 -16 86 -1 35 -8 75 -15 89 -16 31 -16 41 -1 37 14 -2
14 18 0 123 -6 41 -5 70 1 78 7 8 5 18 -7 30 -20 23 -21 42 -1 42 8 0 15 9 15
20 0 11 -7 20 -15 20 -9 0 -15 9 -15 25 0 14 -7 28 -15 31 -8 4 -15 12 -15 20
0 7 -6 17 -13 21 -15 10 -37 71 -37 102 0 17 -4 22 -16 17 -15 -6 -16 0 -11
49 3 32 2 55 -4 55 -5 0 -7 17 -3 38 3 21 -1 62 -11 97 -9 33 -18 71 -20 85
-6 41 -11 59 -18 66 -4 4 -7 22 -7 41 0 18 -4 33 -9 33 -5 0 -11 19 -14 43
-12 113 -52 277 -67 277 -19 0 9 170 28 170 4 0 27 18 50 40 24 22 53 40 65
40 12 1 38 9 56 19 28 15 41 16 64 8 22 -7 31 -7 38 4 6 11 9 10 15 -4 7 -18
44 -24 44 -7 0 6 6 10 13 10 8 0 20 12 28 28 8 15 17 29 20 32 3 3 9 24 13 47
5 34 3 44 -11 52 -10 6 -12 11 -5 11 18 0 15 20 -4 20 -8 0 -12 5 -9 10 3 6 1
10 -4 10 -19 0 -12 18 10 25 19 7 20 7 2 21 -10 7 -13 14 -8 15 6 1 -5 4 -24
8 l-34 6 27 15 c24 12 28 12 36 0 8 -13 13 -13 31 -2 18 12 26 10 62 -15 99
-65 128 -76 228 -82 88 -5 136 -21 125 -40 -2 -3 -7 -55 -10 -116 -14 -238
-53 -706 -66 -795 -5 -30 -18 -86 -29 -125 -12 -38 -30 -102 -40 -141 -11 -39
-26 -88 -35 -109 -9 -20 -16 -48 -16 -60 0 -13 -5 -25 -12 -27 -11 -4 -23 -37
-59 -168 -29 -108 -112 -325 -149 -392 -16 -29 -11 -61 14 -87 14 -15 47 -72
75 -128 43 -87 59 -108 102 -140 28 -21 66 -52 83 -69 46 -45 130 -102 179
-121 23 -9 53 -24 67 -33 38 -24 59 -36 135 -77 38 -21 89 -53 113 -71 24 -18
60 -40 80 -48 124 -52 232 -130 326 -236 39 -43 78 -80 87 -83 12 -4 20 -21
25 -53 4 -26 15 -69 26 -96 11 -28 17 -60 14 -72 -4 -13 -2 -26 4 -29 5 -3 10
-18 10 -32 0 -15 3 -23 7 -20 4 4 6 32 5 62 0 37 3 55 11 55 12 0 41 54 42 78
0 7 6 16 13 21 7 4 12 14 10 21 -2 7 9 14 27 17 51 7 73 37 101 140 1 6 17 14
35 18 28 6 36 3 56 -19 13 -15 20 -32 17 -37 -3 -6 3 -19 15 -30 22 -21 24
-28 21 -71 -1 -14 3 -29 9 -33 20 -12 12 -62 -11 -78 -23 -16 -23 -16 -2 -16
27 -1 74 -47 74 -73 0 -16 -6 -19 -32 -16 -18 2 -33 -2 -35 -9 -3 -9 8 -13 35
-13 40 0 92 -30 92 -53 0 -7 14 -30 30 -51 17 -22 30 -45 30 -51 0 -6 18 -29
40 -50 34 -34 40 -45 40 -82 0 -38 3 -43 23 -43 12 0 41 -16 65 -36 40 -35 53
-66 32 -79 -19 -12 -10 -21 50 -48 45 -21 73 -43 110 -88 52 -62 62 -95 33
-106 -15 -6 -15 -7 3 -14 10 -4 32 -8 47 -8 19 -1 39 -13 61 -36 31 -32 33
-39 29 -83 l-5 -47 22 23 c21 22 23 23 48 6 29 -19 73 -57 134 -117 27 -27 37
-44 33 -57 -7 -22 8 -33 44 -32 17 0 41 -13 68 -37 37 -32 42 -43 45 -86 l3
-50 20 23 c28 32 46 28 94 -23 23 -25 48 -45 56 -45 20 0 56 -50 50 -70 -3
-10 -2 -25 1 -35 6 -14 15 -16 51 -11 47 6 83 -6 83 -27 0 -7 17 -21 38 -30
20 -10 55 -33 76 -51 37 -32 39 -36 28 -60 -12 -26 -12 -26 27 -20 41 7 91
-16 91 -42 0 -7 9 -20 21 -28 12 -8 19 -19 15 -24 -3 -5 7 -12 22 -15 35 -8
56 -49 33 -65 -12 -8 -6 -9 24 -5 33 4 48 -1 90 -29 41 -27 50 -39 50 -62 0
-30 18 -46 30 -27 3 6 17 11 30 11 34 0 155 -114 155 -145 0 -15 8 -26 21 -30
31 -10 47 -61 51 -156 2 -47 8 -90 15 -97 7 -8 12 -45 11 -99 0 -85 0 -87 26
-96 20 -7 26 -15 26 -37 0 -16 5 -32 11 -36 6 -3 8 -16 5 -28 -4 -16 1 -29 18
-43 26 -23 42 -95 31 -143 -4 -18 0 -40 9 -59 9 -16 18 -38 19 -48 2 -10 7
-26 10 -35 4 -10 9 -25 12 -34 3 -8 10 -12 15 -9 6 4 17 1 25 -5 9 -8 15 -8
15 -2 0 7 40 9 113 8 61 -1 122 1 134 5 13 5 44 4 70 0 31 -6 52 -6 60 1 9 7
33 7 75 -1 35 -5 86 -10 115 -10 28 1 57 -2 63 -6 16 -10 109 -12 104 -3 -3 5
8 8 25 8 46 0 73 35 52 69 -14 22 24 142 53 167 14 12 29 23 34 25 5 2 12 23
16 47 6 44 59 121 84 122 6 0 12 5 12 10 0 6 22 43 49 84 38 58 51 88 60 142
14 82 29 138 47 181 8 17 14 38 14 47 0 10 8 16 21 16 16 0 19 4 14 17 -4 10
-9 59 -12 108 -2 50 -8 102 -13 117 -7 21 -5 27 10 31 11 3 17 0 14 -7 -2 -6
7 -12 21 -12 18 -1 25 3 25 16 0 11 -4 21 -8 24 -12 7 -2 68 14 86 23 26 31
63 23 99 -6 27 -4 40 12 60 18 23 20 35 14 143 -4 73 -3 118 3 118 13 0 14
100 1 117 -9 9 -8 21 1 43 10 25 10 36 0 55 -10 19 -10 28 -1 38 8 11 9 22 1
42 -6 16 -13 70 -16 121 -6 87 -5 92 15 99 13 4 21 15 21 27 0 20 -1 20 -20 3
-17 -16 -21 -16 -35 -2 -9 10 -15 33 -15 61 0 26 -4 54 -9 64 -16 30 -29 122
-18 129 5 3 1 13 -10 22 -11 9 -30 50 -43 91 -12 41 -33 91 -45 110 -26 39
-42 100 -27 100 6 0 15 14 21 32 10 27 8 34 -9 50 -11 10 -20 27 -20 38 0 10
-4 22 -10 25 -15 9 -12 73 4 82 22 13 38 51 23 56 -15 5 -8 14 17 19 14 2 19
-4 21 -30 2 -29 0 -33 -16 -29 -14 4 -19 0 -19 -13 0 -11 5 -22 11 -26 6 -3 9
-19 5 -35 -5 -25 -2 -30 22 -35 59 -13 64 -16 59 -34 -3 -11 3 -26 13 -35 26
-23 32 -55 12 -55 -15 0 -15 -2 -2 -10 8 -5 17 -6 20 -2 3 4 19 17 37 29 34
25 59 30 47 12 -4 -7 -1 -10 7 -7 8 3 14 11 14 18 0 25 23 21 28 -6 4 -20 0
-28 -15 -32 -11 -2 -21 -16 -25 -33 -3 -15 -14 -37 -24 -48 -19 -20 -19 -20
21 -16 25 3 38 0 35 -5 -8 -13 20 -52 30 -42 9 9 -4 -59 -15 -73 -14 -18 -22
-55 -12 -55 5 0 12 14 15 30 7 31 27 42 27 15 0 -8 4 -15 9 -15 5 0 16 -16 25
-35 9 -19 24 -35 32 -35 8 0 37 -11 64 -25 27 -14 57 -25 65 -25 9 0 31 -11
49 -25 18 -14 39 -25 48 -25 8 0 23 -7 34 -15 10 -8 36 -15 56 -15 38 0 107
-29 143 -60 11 -10 36 -20 56 -24 20 -3 44 -15 53 -24 52 -59 366 -162 366
-121 0 58 -52 270 -80 320 -5 9 -21 77 -35 150 -37 189 -105 464 -121 490 -3
6 -10 53 -14 106 -5 53 -14 99 -20 103 -8 5 -9 36 -5 105 3 54 8 102 10 106 3
4 7 37 9 73 2 37 10 73 16 81 7 8 10 24 7 35 -3 13 0 20 9 20 8 0 14 9 14 20
0 11 4 20 9 20 5 0 9 37 10 82 1 45 6 99 12 121 7 28 7 42 -2 53 -8 9 -8 14
-1 14 8 0 11 35 10 103 -1 68 3 111 12 127 7 14 14 64 16 113 1 59 7 95 18
111 9 14 11 26 6 28 -16 5 17 96 57 157 17 24 23 49 23 86 0 29 3 66 6 82 l6
30 76 0 c185 2 184 2 189 22 5 18 31 28 93 34 14 1 24 8 23 14 -2 9 6 11 26 7
21 -5 34 0 50 17 11 12 21 19 21 15 0 -5 6 -3 14 3 11 9 15 9 19 -1 4 -10 6
-10 6 0 1 6 7 12 14 12 19 0 51 57 35 63 -9 3 -7 7 5 12 10 4 20 6 22 4 4 -5
-20 -175 -34 -241 -6 -26 -17 -58 -25 -70 -8 -13 -17 -41 -21 -63 -3 -22 -10
-60 -15 -85 -24 -122 -23 -136 8 -159 17 -11 45 -23 64 -26 30 -5 36 -2 48 22
13 29 32 112 51 223 6 36 14 74 19 85 4 11 13 49 20 85 6 36 16 83 21 105 5
22 12 56 15 75 3 19 8 42 11 50 3 8 7 24 9 35 18 125 29 165 46 165 10 0 18 5
18 10 0 6 5 10 11 10 6 0 24 13 39 29 32 31 69 41 170 46 36 1 100 10 143 19
44 9 83 14 88 10 5 -3 9 1 9 9 0 9 10 15 26 15 15 0 29 3 33 8 3 5 12 9 19 10
28 2 32 5 32 19 0 8 5 15 10 15 6 0 10 8 10 18 0 22 23 86 36 103 14 17 16 32
19 133 1 61 6 81 19 88 9 5 16 21 17 36 0 15 1 45 1 67 0 22 -1 59 -4 82 -4
31 -1 43 9 47 9 4 12 13 8 26 -5 16 -3 19 10 13 15 -5 15 -3 4 15 -10 16 -10
23 0 35 8 11 9 17 1 22 -8 5 -8 10 0 20 7 9 7 15 1 19 -6 4 -6 17 1 36 11 33
4 80 -12 80 -6 0 -10 -4 -10 -10 0 -5 -4 -10 -9 -10 -17 0 1 38 22 48 22 11
22 11 -2 11 -33 1 -15 18 24 24 l30 4 -32 2 c-18 0 -33 6 -33 11 0 6 4 10 10
10 5 0 7 7 4 15 -4 11 0 15 16 15 13 0 20 5 17 13 -2 6 -15 12 -28 12 -22 0
-23 3 -20 45 1 25 9 52 17 61 13 15 13 17 -1 22 -19 8 -20 37 0 37 18 0 20 31
4 47 -9 9 -7 10 10 6 15 -4 21 -1 21 11 0 10 -8 16 -21 16 -18 0 -19 2 -9 15
10 12 10 19 2 27 -17 17 -15 28 3 22 8 -4 15 -1 15 5 0 6 -4 11 -9 11 -5 0
-15 16 -21 36 -11 32 -10 38 4 46 9 5 14 14 10 20 -6 10 14 57 29 69 4 3 6
322 5 710 l-3 704 -65 12 c-36 7 -94 12 -130 13 -36 0 -84 7 -107 15 -23 8
-63 17 -90 20 -45 4 -117 16 -188 30 -127 25 -192 40 -200 46 -6 5 -28 9 -49
11 -20 1 -39 5 -42 9 -2 4 -35 8 -72 8 -37 0 -101 7 -142 15 -41 7 -82 14 -90
14 -8 0 -40 8 -70 17 -30 9 -71 20 -90 24 -19 4 -45 13 -57 19 -12 7 -23 12
-25 12 -2 0 -3 -82 -3 -182 0 -176 -11 -258 -35 -258 -5 0 -9 66 -9 147 0 86
-5 149 -10 151 -24 8 -61 45 -61 61 0 9 11 32 25 51 32 43 33 75 3 77 -24 2
-65 47 -72 78 -21 97 -36 229 -37 316 0 111 -10 223 -29 329 -6 35 -12 102
-13 148 l-2 83 -35 19 c-19 10 -53 25 -75 34 -62 26 -135 66 -189 104 -28 19
-61 38 -75 42 -18 4 -29 17 -35 38 -5 19 -16 32 -25 32 -9 0 -27 9 -41 20 -14
11 -33 20 -42 20 -10 0 -18 7 -18 15 0 8 -9 15 -19 15 -19 0 -31 -18 -31 -50
0 -23 -79 -46 -96 -27 -33 35 -35 127 -4 127 7 0 9 8 5 20 -4 12 -1 28 6 37 8
8 15 34 16 57 5 83 8 101 23 113 18 15 33 17 25 3 -3 -5 -2 -10 4 -10 14 0 24
37 26 95 2 28 8 63 14 79 6 16 9 37 6 47 -4 11 -2 19 5 19 18 0 41 69 38 113
l-3 42 -54 3 c-41 2 -57 -1 -63 -12 -13 -22 -28 -20 -28 4 0 21 -15 27 -25 10
-4 -6 -11 -8 -16 -5 -5 4 -9 0 -9 -7 -1 -8 -5 -7 -14 5 -13 17 -15 17 -36 -5
-15 -17 -19 -18 -15 -5 10 25 -7 21 -25 -5 -25 -38 -27 -51 -14 -77 7 -13 10
-29 7 -35 -3 -6 0 -5 8 2 17 16 37 16 21 0 -7 -7 -12 -20 -12 -30 0 -15 9 -18
50 -18 54 0 61 7 31 30 -25 17 -17 34 9 20 11 -6 23 -10 27 -9 4 1 23 -2 41
-6 24 -6 30 -11 22 -20 -8 -9 -4 -14 12 -20 19 -6 20 -8 6 -12 -15 -4 -15 -8
-5 -24 10 -17 9 -22 -8 -32 -11 -6 -24 -12 -30 -12 -5 -1 -9 -7 -7 -14 4 -22
-32 -7 -43 17 -6 12 -19 22 -30 22 -12 0 -26 5 -31 10 -16 16 -46 0 -41 -21 3
-10 -2 -20 -10 -23 -10 -4 -13 -14 -9 -30 4 -16 0 -29 -14 -41 -23 -21 -40
-12 -40 20 0 13 -4 26 -8 29 -5 3 -7 -21 -6 -52 3 -64 -18 -125 -40 -116 -18
7 -71 -39 -62 -54 4 -7 16 -12 27 -12 10 0 19 -4 19 -10 0 -5 16 -9 35 -8 26
1 34 5 31 15 -6 16 20 18 30 2 4 -7 -4 -20 -17 -30 -18 -14 -21 -21 -12 -30
14 -14 33 -4 33 18 0 10 6 14 20 10 13 -3 20 0 20 8 0 18 19 30 31 18 13 -13
38 -113 29 -118 -4 -3 -15 4 -25 15 -20 22 -35 26 -35 9 0 -13 20 -33 43 -42
9 -3 17 -17 17 -29 1 -31 33 -68 59 -68 12 0 21 -4 21 -9 0 -5 -13 -9 -30 -9
-17 1 -30 5 -30 10 0 4 -15 8 -32 8 l-33 0 33 -16 c31 -16 43 -34 22 -34 -5 0
-10 4 -10 9 0 4 -25 9 -56 9 -45 0 -54 -2 -50 -15 3 -8 6 -23 6 -34 0 -12 7
-19 20 -19 11 0 20 -5 20 -11 0 -6 10 -9 23 -8 12 2 28 0 35 -5 7 -4 24 -5 38
-2 23 6 25 4 19 -16 -11 -33 -13 -34 -35 -10 -24 26 -61 32 -40 7 7 -8 18 -15
25 -15 14 0 25 -22 25 -48 0 -14 -4 -12 -18 6 -16 21 -20 22 -31 8 -7 -8 -19
-12 -27 -9 -19 7 -18 -4 5 -28 11 -13 27 -19 42 -16 13 2 18 2 12 0 -7 -3 -13
-11 -13 -19 0 -8 -10 -14 -25 -14 -14 0 -25 5 -25 12 0 6 -10 2 -23 -10 -30
-28 -57 -29 -50 -2 3 11 1 20 -3 20 -5 0 -15 13 -22 29 -13 29 -13 29 -42 13
-17 -9 -30 -22 -30 -27 0 -15 42 -39 63 -36 14 2 17 -2 11 -23 -5 -20 -3 -25
7 -22 37 11 79 15 79 6 0 -6 -8 -10 -19 -10 -23 0 -56 -48 -52 -74 1 -11 -2
-16 -8 -12 -15 10 -13 -3 7 -44 9 -19 24 -35 32 -35 8 0 19 -6 23 -13 5 -7 13
-9 19 -6 7 5 8 2 4 -5 -9 -14 21 -51 41 -51 11 0 13 8 8 33 -4 17 -12 38 -17
45 -8 9 -4 12 15 12 24 0 25 -3 20 -34 -4 -24 0 -37 11 -47 10 -8 25 -22 35
-32 19 -18 24 -15 46 22 5 9 4 12 -2 8 -23 -14 -7 52 17 72 l25 20 -25 2 c-25
1 -25 1 -2 7 12 4 28 18 35 32 7 14 23 30 35 35 28 12 38 46 22 75 -9 16 -9
25 0 36 7 7 10 21 6 29 -3 9 0 15 10 15 12 0 15 6 10 25 -8 33 1 50 19 35 16
-13 88 7 79 22 -3 4 7 8 21 8 17 0 24 -4 19 -11 -4 -8 1 -9 16 -4 26 8 40 -8
39 -45 0 -14 -3 -19 -6 -12 -2 6 -13 12 -22 12 -13 0 -18 -9 -19 -35 -1 -37 6
-43 27 -22 11 10 12 7 7 -15 -5 -23 -3 -28 12 -28 15 0 19 -9 21 -46 1 -33 -2
-44 -11 -42 -18 4 -19 -7 -3 -44 7 -18 11 -45 8 -60 -4 -23 -1 -29 20 -37 28
-11 32 -15 41 -53 4 -18 1 -32 -10 -42 -8 -9 -11 -16 -6 -16 6 0 9 -16 8 -35
-2 -20 1 -38 6 -41 5 -3 7 -12 4 -20 -3 -7 1 -26 9 -41 11 -21 12 -29 2 -35
-14 -8 -16 -35 -5 -60 5 -9 2 -28 -7 -44 -8 -15 -11 -32 -8 -38 4 -6 6 -23 5
-39 -1 -15 2 -36 7 -45 7 -13 4 -25 -10 -42 -21 -28 -25 -70 -8 -87 6 -6 7
-13 2 -16 -5 -3 -5 -56 -1 -119 10 -146 9 -343 -2 -343 -1 0 -3 -11 -5 -25 -2
-14 -8 -47 -14 -75 -6 -27 -8 -71 -5 -97 5 -39 4 -49 -10 -54 -12 -4 -14 -10
-7 -18 7 -8 7 -40 2 -92 -5 -43 -7 -82 -5 -86 3 -4 -2 -21 -10 -37 -9 -16 -12
-31 -7 -33 6 -2 4 -26 -3 -58 -15 -64 -8 -141 24 -258 11 -40 20 -84 20 -98 0
-14 4 -33 9 -42 5 -9 11 -40 14 -68 2 -28 10 -61 17 -74 7 -12 10 -38 7 -56
-3 -19 -1 -36 4 -39 5 -4 9 -16 9 -27 0 -12 7 -29 16 -39 8 -9 17 -32 18 -51
2 -18 8 -50 15 -70 7 -21 10 -42 7 -47 -4 -5 -2 -20 3 -34 6 -16 6 -28 -2 -36
-8 -8 -8 -11 1 -11 7 0 12 -6 12 -13 0 -8 9 -22 19 -31 11 -10 23 -31 26 -47
4 -16 10 -29 13 -29 4 0 8 -17 10 -37 1 -20 -1 -34 -4 -30 -10 9 -34 -12 -34
-29 0 -10 9 -12 34 -8 19 3 37 0 41 -6 3 -5 1 -10 -5 -10 -6 0 -8 -5 -5 -11 4
-6 10 -8 13 -5 3 3 11 -3 19 -14 8 -11 20 -20 26 -20 8 0 12 -21 13 -63 1 -56
4 -66 32 -94 32 -32 41 -53 22 -53 -5 0 -10 -13 -10 -29 0 -26 -3 -29 -25 -27
-14 2 -32 11 -40 22 -13 18 -14 18 -8 -4 5 -22 4 -23 -16 -11 -13 9 -19 20
-15 31 3 10 1 18 -5 18 -6 0 -11 -5 -11 -12 0 -6 -10 -3 -22 8 -13 10 -20 15
-16 10 10 -11 -9 -46 -25 -46 -7 0 -17 10 -22 22 -6 14 -21 23 -40 25 -35 5
-52 23 -50 55 2 22 -15 48 -32 48 -5 0 -25 12 -46 26 -39 26 -148 60 -204 63
-7 1 -13 8 -13 17 0 9 -6 14 -13 11 -6 -2 -11 -11 -9 -21 2 -9 -1 -16 -6 -16
-11 0 -25 38 -23 58 1 7 -9 22 -23 35 l-26 22 10 145 c5 80 16 181 24 225 8
44 12 83 10 87 -3 4 -5 81 -5 170 0 126 3 172 15 200 18 43 21 84 6 93 -6 4
-8 15 -5 26 4 10 3 19 -2 19 -4 0 -8 35 -9 78 0 42 -3 95 -6 117 -4 22 -9 101
-13 175 -4 74 -11 140 -16 146 -5 6 -11 58 -14 115 -3 57 -7 120 -9 139 -1 19
-3 47 -4 63 -1 15 -7 26 -14 25 -11 -3 -38 43 -53 91 -6 20 -4 23 9 18 27 -11
18 22 -10 35 -19 9 -24 18 -21 35 2 13 -4 31 -15 42 -10 12 -21 35 -25 52 -3
17 -12 33 -20 36 -8 3 -11 13 -7 25 3 11 -2 30 -13 46 -26 40 -41 65 -48 82
-19 46 -36 65 -60 68 -18 2 -25 8 -23 20 3 9 9 16 15 15 17 -3 23 35 7 41 -8
3 -14 19 -14 36 0 20 -5 30 -15 30 -8 0 -15 5 -15 11 0 5 -4 7 -10 4 -6 -3
-10 3 -10 14 0 12 -6 21 -14 21 -8 0 -22 14 -30 32 -20 39 -20 49 -1 42 8 -4
15 -1 15 5 0 7 -10 11 -22 10 -41 -4 -58 1 -58 15 0 8 -8 21 -17 28 -10 7 -19
20 -21 28 -2 8 -10 22 -18 31 -8 8 -14 30 -14 49 0 31 -2 32 -30 27 -29 -6
-30 -5 -30 31 0 21 -14 65 -32 104 -30 62 -35 68 -65 68 -32 0 -102 37 -103
55 -1 20 -128 148 -139 140 -19 -11 -43 16 -37 41 6 23 -15 47 -22 26 -5 -17
-32 -15 -32 3 0 8 -7 15 -15 15 -8 0 -15 9 -15 19 0 16 -10 21 -52 28 -45 7
-54 13 -71 43 -10 19 -27 43 -38 53 -10 9 -16 24 -13 32 5 11 -1 15 -25 15
-17 0 -31 4 -31 10 0 5 -3 9 -7 8 -29 -6 -107 57 -87 70 5 4 9 32 8 62 -4 152
-1 138 -34 136 -17 -1 -34 -6 -38 -11 -4 -6 -23 -10 -42 -10 -32 0 -35 3 -35
29 -1 16 -6 31 -13 34 -9 3 -8 8 5 18 13 9 14 13 4 14 -10 0 -11 3 -3 13 11
13 1 74 -16 101 -8 14 -10 138 -2 166 4 14 5 31 3 38 -4 9 -497 12 -2421 12
-2012 -1 -2414 -3 -2399 -14 9 -7 17 -26 17 -44 0 -41 9 -62 27 -62 9 0 21 -6
27 -14 6 -8 31 -18 56 -21 87 -12 133 -33 160 -73 24 -37 25 -40 27 -277 5
-419 3 -585 -11 -830 -12 -206 -15 -244 -27 -310 -11 -57 -14 -63 -31 -54 -10
5 -18 18 -18 29 0 10 -4 21 -9 25 -6 3 -13 27 -16 53 -11 85 -29 143 -50 165
-12 12 -27 41 -35 65 -7 23 -16 42 -20 42 -3 0 -14 17 -23 38 -9 21 -26 48
-37 60 -12 12 -18 27 -15 32 3 5 -5 19 -19 31 -13 11 -27 36 -30 54 -4 18 -14
44 -24 56 -9 13 -25 42 -36 64 -10 22 -22 47 -27 55 -5 8 -21 40 -35 70 -56
119 -118 237 -140 266 -13 17 -24 38 -24 46 0 8 -8 26 -19 39 -10 13 -31 48
-46 77 -15 28 -31 52 -35 52 -5 0 -12 21 -16 46 -5 37 -2 54 15 86 18 34 19
46 11 85 -6 24 -19 62 -30 83 -11 22 -20 48 -20 58 0 16 -10 18 -80 21 l-80 2
0 -3615z m861 1877 c1 -10 1 -21 0 -25 0 -5 4 -8 10 -8 6 0 10 -34 9 -92 -1
-51 0 -104 2 -117 3 -13 2 -40 -2 -60 -3 -20 -1 -56 5 -81 6 -25 8 -59 5 -77
-5 -22 -3 -33 6 -37 10 -4 11 -13 3 -38 -5 -18 -7 -45 -3 -60 3 -16 2 -28 -3
-28 -13 0 -17 -51 -10 -125 14 -135 17 -179 11 -167 -3 6 -12 12 -20 12 -8 0
-14 4 -14 9 0 5 -8 11 -19 14 -10 2 -20 16 -23 30 -4 20 0 27 16 32 21 6 21 6
1 15 -30 13 -33 12 -37 -12 -3 -19 -6 -16 -23 20 -10 23 -22 42 -25 42 -4 0
-7 6 -8 13 -1 6 -5 27 -8 45 -4 20 -2 32 5 32 6 0 11 -7 11 -15 0 -8 5 -15 10
-15 6 0 10 6 10 14 0 8 6 17 13 19 6 3 1 6 -13 7 -31 1 -64 25 -55 39 3 6 17
8 30 5 12 -3 26 -1 30 6 4 7 -1 14 -14 17 -12 3 -21 12 -21 21 0 22 -40 62
-61 62 -12 0 -16 5 -13 15 4 8 1 15 -5 15 -7 0 -14 -7 -17 -15 -4 -8 -10 -12
-15 -9 -16 9 -41 -24 -34 -46 7 -22 -5 -26 -23 -8 -9 9 -12 9 -12 0 0 -6 -7
-9 -15 -6 -9 4 -15 1 -15 -7 0 -15 20 -49 20 -35 0 5 6 3 14 -3 7 -6 11 -22 8
-36 -2 -15 0 -25 7 -25 14 0 15 -47 1 -55 -5 -3 -10 1 -10 10 0 9 -5 13 -11
10 -6 -4 -13 2 -16 14 -3 13 -13 21 -25 21 -17 0 -20 5 -15 28 5 28 -4 64 -16
63 -4 -1 -19 -1 -34 -1 -27 1 -27 1 -9 15 11 8 28 15 38 15 10 0 18 7 18 15 0
8 -4 15 -10 15 -5 0 -10 -4 -10 -10 0 -5 -12 -10 -26 -10 -17 0 -23 4 -18 12
9 15 15 58 8 58 -3 0 -12 -7 -21 -15 -20 -21 -32 -11 -31 26 1 36 39 71 95 89
21 7 45 19 54 27 14 11 18 12 22 1 3 -9 7 -7 13 6 17 42 76 82 67 45 -3 -10
-1 -19 5 -19 13 0 27 38 23 64 -1 10 2 16 7 12 16 -10 52 28 41 45 -15 24 -10
39 14 39 45 0 63 12 80 51 20 46 21 61 6 76 -15 15 -3 33 22 33 11 0 19 -7 20
-17z m3008 -913 c23 0 41 -22 23 -28 -23 -7 -11 -22 18 -22 31 0 37 8 20 28
-5 7 0 3 13 -9 21 -19 21 -21 5 -33 -22 -16 -23 -26 -3 -26 18 0 19 -12 4 -27
-11 -11 13 -43 34 -43 18 0 41 40 29 52 -14 14 -3 48 14 41 9 -3 12 -13 8 -29
-7 -29 10 -32 38 -7 14 12 37 16 93 16 68 -1 78 -3 100 -27 26 -29 41 -33 48
-13 3 7 6 5 6 -5 1 -10 8 -18 17 -18 12 0 15 6 10 25 -6 24 8 37 16 14 2 -7
17 -7 49 0 93 21 214 -4 206 -42 -1 -6 3 -12 8 -12 34 -5 72 -20 82 -33 7 -8
26 -15 43 -14 16 0 32 -4 36 -9 3 -6 12 -2 21 10 15 22 43 29 43 11 0 -5 7
-10 16 -10 10 0 14 6 11 15 -4 8 -2 17 3 20 6 4 10 -3 10 -14 0 -16 6 -21 25
-21 14 0 25 -4 25 -9 0 -5 11 -11 25 -13 14 -3 25 -1 25 3 0 13 30 -2 30 -15
1 -23 49 -66 75 -66 18 0 25 -5 25 -20 0 -11 6 -22 13 -24 96 -25 102 -45 12
-38 -37 2 -64 0 -63 -5 4 -11 -47 -73 -60 -73 -21 0 -43 -50 -36 -84 5 -30 2
-36 -25 -52 -17 -10 -29 -24 -27 -30 12 -31 -55 -48 -72 -18 -7 13 -11 12 -25
-10 l-17 -25 109 2 c91 2 113 6 130 21 12 11 21 27 21 38 0 18 11 24 23 11 14
-13 124 -12 174 2 47 14 102 13 125 -1 5 -3 15 0 24 6 15 13 141 9 294 -10 41
-5 102 -12 135 -15 33 -4 74 -13 90 -20 17 -7 45 -16 63 -20 23 -5 32 -12 32
-27 0 -18 -5 -20 -39 -15 -30 4 -41 1 -45 -10 -4 -9 -13 -13 -21 -9 -9 3 -23
1 -33 -4 -33 -18 -112 -40 -126 -34 -9 3 -23 -6 -36 -24 -12 -16 -41 -39 -63
-50 -48 -23 -112 -39 -104 -25 6 10 -14 77 -26 89 -4 4 -7 16 -7 26 0 10 -2
18 -5 18 -13 0 -49 -39 -72 -77 -21 -36 -29 -42 -49 -37 -15 4 -33 0 -47 -10
-59 -41 -62 -46 -62 -94 0 -39 -3 -47 -17 -46 -10 1 -18 -4 -18 -12 0 -8 6
-14 14 -14 17 0 29 -81 16 -114 -5 -15 -20 -27 -39 -31 -17 -4 -31 -10 -31
-15 0 -12 -53 -20 -66 -9 -6 5 -25 4 -46 -3 -31 -9 -39 -7 -76 17 -33 21 -42
34 -42 55 0 16 -7 30 -15 34 -12 4 -15 20 -13 73 3 65 4 69 34 83 19 9 36 27
43 47 11 28 9 37 -13 72 -20 31 -30 38 -48 34 -17 -3 -19 -2 -9 5 11 8 10 12
-7 21 -17 9 -22 8 -27 -9 -3 -11 -11 -20 -17 -20 -6 0 -4 -8 5 -18 15 -16 24
-62 13 -62 -33 0 -48 35 -18 43 14 4 14 5 -3 6 -11 0 -32 14 -46 30 l-26 29
-159 0 c-143 0 -214 -9 -214 -27 0 -3 9 -12 20 -19 41 -25 21 -32 -85 -27 -58
2 -109 6 -114 9 -4 3 -36 1 -71 -5 -48 -7 -65 -7 -71 2 -5 9 -31 10 -93 6 -50
-3 -88 -2 -91 4 -10 15 -112 11 -129 -6 -8 -8 -19 -15 -25 -15 -6 0 -20 -5
-30 -12 -15 -9 -28 -8 -60 4 -29 12 -41 13 -41 5 0 -9 -2 -9 -8 0 -4 7 -42 13
-97 15 -74 2 -90 0 -91 -12 -2 -32 -5 -34 -20 -15 -10 13 -17 16 -22 9 -7 -11
-30 -13 -201 -13 -74 -1 -99 3 -113 16 -35 32 -17 53 46 53 18 0 47 7 65 16
24 12 36 13 44 5 6 -6 22 -11 37 -11 23 1 24 2 8 14 -21 15 -23 32 -5 39 6 3
0 6 -15 6 -16 1 -28 -4 -28 -11 0 -9 -3 -9 -12 0 -17 17 -9 20 57 27 67 6 78
11 41 21 -20 5 -26 12 -26 33 0 19 -8 32 -24 40 -34 19 -55 59 -36 71 11 7 9
13 -11 29 -13 11 -27 20 -30 21 -3 0 -16 9 -29 20 -13 12 -30 18 -38 15 -10
-3 -12 0 -9 10 7 18 -6 27 -27 19 -11 -4 -16 -19 -16 -43 0 -44 -16 -74 -25
-49 -4 9 -2 26 5 37 9 17 8 21 -4 21 -29 0 -67 23 -62 37 3 8 2 12 -2 9 -5 -3
-16 4 -25 14 -16 19 -7 37 13 25 6 -3 10 1 10 9 0 10 12 16 38 18 36 3 37 4
34 42 -3 39 21 81 40 70 5 -3 20 -7 34 -9 18 -2 24 2 20 11 -4 10 4 14 31 14
27 0 33 3 26 13 -7 8 -5 21 7 39 9 16 19 26 22 23 3 -3 18 1 34 10 27 14 29
14 32 -5 2 -12 11 -20 23 -20 22 0 23 4 8 28 -9 15 -8 24 6 46 22 33 57 54 63
37 6 -18 54 -1 85 31 16 17 35 27 43 24 8 -3 14 -1 14 5 0 6 5 7 10 4 6 -4 8
-10 5 -15 -3 -5 11 -12 32 -16 31 -6 34 -8 18 -14 -19 -7 -18 -8 7 -20 26 -12
26 -13 8 -33 -11 -11 -16 -25 -12 -31 4 -7 8 -4 10 7 4 17 12 21 45 17 11 -1
21 7 24 19 3 12 14 21 25 21 14 0 18 5 14 15 -3 10 1 15 13 15 24 0 48 26 30
32 -8 3 -9 9 -4 18 6 10 10 8 16 -8 5 -13 17 -22 28 -22z m4709 -166 c13 -4
21 -12 19 -18 -19 -44 -19 -46 -3 -46 9 0 16 -5 16 -10 0 -6 6 -10 13 -9 26 3
35 -2 40 -21 3 -13 14 -20 29 -20 39 0 68 -12 68 -26 0 -8 -7 -14 -15 -14 -8
0 -15 -4 -15 -10 0 -5 -12 -10 -26 -10 -19 0 -25 4 -20 15 7 20 -4 19 -19 -2
-11 -15 -17 -14 -69 7 -47 20 -61 22 -76 12 -26 -16 -40 -15 -40 3 0 11 -11
15 -39 15 -25 0 -41 5 -45 15 -6 16 9 20 53 16 18 -2 22 2 18 13 -4 9 -1 16 5
16 7 0 3 6 -8 14 -18 14 -18 15 -2 21 10 4 16 11 13 15 -3 5 4 6 15 3 15 -4
18 -9 10 -18 -7 -9 -2 -12 23 -12 18 0 37 7 44 16 15 21 8 30 -17 24 -11 -3
-20 0 -20 6 0 12 14 14 48 5z m-7735 -314 c2 -20 8 -25 32 -26 17 -1 35 -2 40
-4 6 -1 17 -3 25 -4 22 -2 27 -76 6 -76 -9 0 -16 -5 -16 -11 0 -12 -49 -9 -68
5 -8 6 -29 9 -48 8 -25 -2 -34 1 -34 13 0 9 5 13 10 10 6 -3 10 -1 10 6 0 7 8
21 18 32 17 19 16 19 -14 13 -26 -6 -35 -3 -55 21 -15 17 -31 27 -43 25 -12
-3 -17 1 -14 10 7 19 48 23 48 4 0 -9 7 -16 16 -16 9 0 18 -9 21 -20 6 -23 23
-27 23 -6 0 8 8 17 18 19 9 3 2 5 -15 6 -18 0 -33 6 -33 12 0 6 6 9 13 6 9 -3
19 8 27 31 l14 37 8 -35 c5 -19 10 -46 11 -60z m1693 -303 c2 -7 25 -14 55
-15 28 -1 48 2 45 7 -3 5 4 7 15 4 12 -4 24 -14 27 -25 2 -10 10 -17 16 -16
17 4 18 -5 10 -71 -8 -74 -15 -84 -53 -83 -46 1 -51 8 -51 74 0 58 -1 60 -22
54 -13 -4 -63 -15 -111 -26 -90 -19 -183 -44 -225 -61 -13 -5 -31 -9 -42 -9
-10 0 -20 -4 -22 -8 -1 -4 -38 -21 -81 -36 -43 -16 -84 -35 -92 -42 -7 -8 -18
-14 -24 -14 -5 0 -14 -6 -18 -13 -4 -7 -21 -21 -36 -30 -27 -18 -49 -34 -86
-67 -29 -26 -81 -115 -83 -145 -2 -15 -8 -30 -15 -32 -7 -3 -13 -14 -13 -25 0
-11 -5 -29 -12 -41 -7 -12 -13 -42 -14 -67 -1 -25 -5 -63 -9 -85 -14 -87 -9
-358 7 -415 30 -105 49 -165 59 -182 5 -10 9 -27 9 -38 0 -11 5 -20 10 -20 6
0 10 -7 10 -15 0 -8 4 -15 10 -15 13 0 42 -58 35 -70 -3 -5 -1 -19 6 -31 16
-31 18 -119 2 -119 -7 0 -13 7 -13 15 0 8 -8 15 -19 15 -19 0 -72 88 -76 127
-1 10 -7 32 -14 48 -7 17 -15 45 -17 64 -3 19 -9 40 -13 45 -10 12 -36 145
-47 239 -4 41 -12 60 -25 67 -14 8 -17 20 -15 61 2 28 8 54 15 58 6 4 15 50
21 102 10 105 27 194 41 221 6 11 5 19 -2 24 -8 5 -6 10 5 16 9 5 16 15 16 22
0 7 11 36 25 64 14 29 25 56 25 62 0 23 187 197 243 225 32 17 68 36 80 42 12
7 30 13 40 13 9 0 17 5 17 10 0 6 6 10 14 10 7 0 24 11 38 23 19 18 39 24 78
26 54 2 109 20 62 21 -29 0 -19 20 11 21 21 0 21 1 2 9 -18 8 -17 9 7 9 22 1
26 -3 23 -19 -5 -25 4 -30 35 -18 20 7 22 11 10 19 -11 7 2 9 43 6 40 -2 61 0
68 10 9 10 8 13 -5 13 -10 0 -14 5 -11 10 9 14 25 12 31 -3z m3568 -76 c4 -5
1 -11 -4 -13 -7 -2 -6 -9 2 -21 14 -19 127 -42 158 -32 9 3 29 1 44 -5 18 -7
34 -6 52 2 23 11 28 9 60 -26 19 -20 34 -41 34 -46 0 -5 6 -15 13 -22 22 -24
48 -114 50 -177 1 -45 6 -66 19 -78 10 -9 18 -30 18 -49 0 -32 -13 -53 -23
-37 -3 5 -33 10 -67 11 -63 3 -100 17 -100 38 0 21 -58 62 -94 67 -20 3 -36 1
-36 -4 0 -5 -13 -9 -30 -9 -25 0 -30 4 -36 35 -6 34 -28 48 -36 23 -6 -17 -59
6 -56 23 2 7 -9 15 -25 20 -31 8 -87 64 -87 85 0 17 27 30 38 19 4 -4 1 -10
-5 -12 -20 -7 -15 -23 7 -23 13 0 18 5 13 15 -3 9 2 22 12 29 13 9 15 15 6 20
-6 4 -14 1 -16 -7 -5 -11 -18 -12 -68 -5 -39 5 -72 5 -91 -2 -16 -5 -30 -10
-30 -10 -1 0 -1 21 0 48 0 26 -4 53 -9 60 -18 23 5 30 107 36 85 5 104 10 130
31 34 27 42 29 50 16z m-1736 -84 c15 -18 -16 -87 -39 -87 -12 0 -16 -5 -13
-15 3 -8 -1 -24 -9 -36 -16 -22 -12 -54 4 -43 5 3 9 -1 9 -8 0 -10 2 -10 9 1
6 10 10 -1 11 -35 6 -124 2 -174 -14 -198 -9 -14 -16 -34 -16 -44 0 -11 -13
-24 -32 -33 -25 -11 -34 -21 -36 -44 -2 -16 -7 -34 -11 -40 -13 -17 -11 -116
2 -121 7 -2 13 -19 14 -37 1 -17 -1 -27 -5 -20 -4 6 -25 13 -47 15 -39 3 -40
4 -38 40 2 28 -1 36 -12 32 -8 -3 -15 -15 -17 -27 -2 -17 -11 -23 -40 -25 -32
-3 -38 0 -38 17 0 11 -4 22 -9 26 -6 3 -9 24 -8 47 1 35 5 43 29 52 43 16 41
32 -7 63 -24 15 -41 31 -38 36 3 4 -4 11 -15 14 -20 5 -21 7 -13 67 0 5 4 6 8
3 3 -4 16 1 27 12 12 10 30 21 41 23 11 2 19 11 19 21 -1 13 4 15 22 11 14 -4
24 -2 24 4 0 6 -20 14 -45 18 -25 3 -45 10 -45 15 0 5 -18 9 -40 9 -23 0 -51
7 -64 16 -18 11 -32 13 -58 6 -36 -9 -35 -6 -23 -115 7 -63 -3 -87 -36 -87
-17 0 -19 8 -19 63 0 34 6 86 13 114 15 56 63 122 87 120 11 -2 16 10 18 41 3
37 1 42 -17 42 -26 0 -27 9 -4 25 16 12 14 15 -17 28 -30 13 -37 13 -47 0 -9
-11 -13 -11 -19 -2 -4 7 -2 15 4 17 7 2 12 10 12 18 0 11 5 11 25 2 14 -6 25
-15 25 -19 0 -5 7 -6 15 -3 8 4 12 10 9 15 -3 5 6 9 19 9 14 0 37 3 53 6 23 4
32 0 42 -17 15 -23 17 -23 -33 -3 -22 9 -19 -13 3 -25 31 -16 62 -2 62 28 1
22 2 24 11 9 10 -19 54 -25 63 -9 3 4 16 6 28 4 13 -2 37 2 54 9 37 15 149 12
162 -5z m2378 -464 c7 -10 14 -37 14 -60 0 -52 -25 -73 -90 -73 -45 -1 -80
-17 -80 -39 0 -14 -27 -15 -36 0 -3 6 -1 16 5 22 6 6 11 31 11 55 0 24 5 52
10 63 13 23 40 26 40 4 0 -23 16 -18 47 15 32 33 60 38 79 13z m-1428 -375
c-3 -7 1 -18 8 -25 17 -17 25 -16 18 2 -10 26 33 17 55 -11 22 -29 73 -46 108
-38 15 4 30 0 41 -9 37 -33 123 -86 159 -97 21 -7 42 -16 47 -21 6 -5 20 -9
33 -9 36 0 44 -55 28 -188 -4 -34 -12 -65 -16 -68 -5 -3 -9 2 -9 10 0 10 -6
13 -16 9 -11 -4 -13 -13 -9 -34 6 -25 3 -30 -20 -39 -37 -14 -40 -14 -75 22
-25 24 -34 28 -40 18 -11 -17 -4 -30 16 -30 8 0 14 -5 14 -11 0 -6 -9 -9 -20
-6 -11 3 -18 1 -14 -4 3 -5 11 -9 19 -9 7 0 16 -7 19 -15 5 -13 -2 -15 -34
-13 -22 1 -40 5 -40 8 0 3 -22 6 -50 7 -46 1 -55 -4 -51 -29 2 -11 -27 -10
-33 1 -4 5 -23 3 -45 -6 -28 -11 -39 -21 -38 -34 1 -11 5 -19 10 -19 4 0 5 -5
1 -12 -5 -8 -13 -4 -25 11 -14 17 -25 20 -49 16 -25 -4 -35 0 -55 22 -13 16
-25 33 -25 39 0 20 -32 39 -57 36 -15 -2 -31 4 -43 18 -10 12 -22 20 -26 18
-5 -2 -9 30 -11 70 -1 43 2 70 8 67 5 -4 9 -1 9 4 0 6 -5 11 -10 11 -11 0 -9
58 3 76 3 6 1 30 -5 54 -9 36 -9 45 4 54 10 7 14 24 13 44 -2 17 2 32 7 32 5
0 6 5 2 11 -4 8 -9 7 -15 -2 -10 -16 -14 -12 -23 23 -6 26 -5 27 36 22 51 -6
59 -11 52 -29 -5 -12 0 -14 27 -9 19 4 39 11 46 16 7 5 17 7 23 3 7 -4 10 -1
9 6 -4 22 12 49 28 49 8 0 13 -6 11 -12z m1082 -48 c0 -3 16 -14 35 -24 34
-18 35 -21 35 -76 0 -44 -4 -61 -20 -75 -11 -10 -20 -29 -20 -42 0 -13 -6 -26
-14 -29 -8 -3 -21 -24 -30 -48 -9 -23 -31 -57 -49 -74 -52 -51 -207 -103 -207
-70 0 7 -14 22 -30 31 -25 15 -29 23 -24 45 5 23 4 25 -8 11 -7 -9 -18 -14
-25 -12 -7 2 -21 0 -32 -6 -28 -15 -32 6 -9 45 12 21 15 35 9 39 -6 3 -10 16
-9 28 0 12 -2 29 -6 38 -5 11 7 25 39 48 25 18 45 36 45 41 0 5 12 13 26 16
18 5 24 12 21 24 -6 23 37 70 63 70 11 0 20 4 20 10 0 5 24 8 55 7 30 -2 49 0
43 4 -7 5 11 7 40 6 28 -1 52 -4 52 -7z m-1748 -263 c32 -50 36 -51 109 -31 9
3 19 -2 23 -11 3 -8 1 -15 -4 -15 -6 0 -10 -5 -10 -11 0 -6 -7 -17 -15 -25
-19 -19 -9 -38 50 -100 25 -25 45 -47 45 -49 0 -9 -62 29 -67 41 -3 8 -11 14
-18 14 -7 0 -30 21 -51 48 -20 26 -41 51 -45 56 -5 5 -14 4 -23 -3 -11 -9 -16
-9 -21 0 -4 6 -3 14 3 18 7 4 8 12 1 21 -8 13 -10 13 -18 0 -6 -8 -12 -12 -14
-10 -30 37 -47 77 -27 65 5 -3 2 11 -6 31 -8 20 -13 43 -9 52 4 12 11 10 36
-14 16 -16 44 -50 61 -77z m2982 88 c-7 -18 -4 -18 30 -5 46 17 54 6 53 -73
-1 -54 -5 -77 -19 -91 -10 -11 -18 -25 -18 -31 0 -5 -10 -15 -22 -20 -12 -6
-32 -28 -44 -50 -12 -22 -37 -50 -55 -63 -19 -12 -41 -29 -50 -36 -9 -7 -30
-13 -48 -12 -27 1 -32 5 -37 34 -7 37 -19 49 -28 26 -3 -8 -14 -14 -23 -13
-10 0 -24 1 -30 0 -16 -1 -17 -63 -2 -78 11 -11 1 -18 -106 -71 -27 -14 -53
-30 -57 -36 -8 -11 -8 -11 -31 23 -14 22 -14 26 6 65 12 22 25 43 29 44 4 2 8
13 8 25 1 30 30 62 63 71 15 3 27 11 27 16 0 5 -6 7 -14 4 -17 -7 -30 12 -19
29 4 6 8 16 8 21 0 9 19 21 48 30 9 3 17 14 17 25 0 12 11 24 30 33 17 7 30
16 30 20 0 5 5 8 11 8 5 0 32 19 60 43 27 23 57 43 66 44 41 5 69 11 93 21 14
6 26 11 27 11 1 1 0 -6 -3 -14z m-1090 -158 c-3 -18 -19 -60 -35 -94 -16 -34
-35 -77 -42 -95 -8 -18 -26 -48 -41 -65 -30 -36 -61 -45 -52 -15 2 9 8 28 11
42 4 14 20 44 35 67 31 45 52 89 69 143 6 19 19 45 27 59 15 22 17 22 26 7 5
-9 6 -31 2 -49z m-2337 -208 c8 -8 16 -7 31 2 17 10 25 8 60 -17 23 -16 42
-34 42 -41 0 -14 58 -59 70 -56 5 1 11 -4 14 -12 3 -8 1 -15 -4 -15 -5 0 -12
-21 -15 -47 -3 -27 -11 -57 -17 -68 -8 -14 -8 -20 1 -23 22 -7 10 -22 -18 -22
-17 0 -33 -4 -36 -10 -3 -5 -17 -10 -30 -10 -14 0 -26 -7 -30 -18 -4 -13 -23
-23 -60 -31 -40 -9 -55 -17 -55 -30 0 -38 -121 -44 -142 -7 -15 26 -65 48 -86
37 -32 -17 -56 12 -58 71 -1 41 -5 53 -20 59 -18 7 -18 8 0 8 15 1 17 6 13 29
-7 34 0 47 31 56 19 6 27 23 23 49 0 4 5 7 12 7 14 0 53 37 46 44 -2 1 -13 8
-24 14 -20 11 -20 11 1 12 11 0 24 -3 27 -6 12 -13 99 -15 113 -3 8 6 21 9 29
5 8 -3 15 -2 15 3 0 7 36 28 51 30 3 1 10 -4 16 -10z m806 -67 c94 -63 208
-105 222 -81 4 6 14 8 23 4 8 -3 19 0 23 7 6 9 11 9 22 -1 10 -8 17 -9 22 -1
8 13 25 13 25 0 0 -5 -7 -10 -15 -10 -19 0 -19 -19 1 -45 14 -19 16 -19 25 -2
6 11 17 16 27 13 13 -5 17 1 18 24 1 17 -3 30 -7 30 -5 0 -8 -5 -6 -11 1 -6
-4 -14 -11 -16 -9 -4 -12 3 -10 23 2 23 -1 28 -14 26 -22 -4 -24 14 -3 22 8 3
15 1 15 -5 0 -7 10 -9 25 -5 19 5 25 2 26 -11 4 -57 17 -75 50 -69 16 4 43 9
60 12 28 5 30 4 24 -15 -5 -17 -2 -21 17 -22 13 0 42 -1 66 -2 41 -2 55 6 30
16 -8 3 -5 6 5 6 10 1 16 5 13 10 -4 5 0 12 6 15 10 3 9 8 -4 15 -10 7 -14 19
-11 32 5 19 7 19 32 -9 35 -40 85 -59 105 -41 39 35 48 40 69 37 16 -2 23 -11
25 -33 6 -50 72 -81 94 -45 7 11 16 20 20 20 11 0 2 -34 -10 -38 -7 -2 -4 -11
8 -24 22 -24 49 -18 57 12 3 13 14 20 28 20 52 0 87 15 154 66 88 68 136 75
94 14 -43 -62 -221 -200 -258 -200 -8 0 -15 -4 -15 -9 0 -5 -21 -11 -47 -14
-27 -3 -73 -12 -103 -22 -42 -12 -77 -15 -150 -10 -52 3 -128 7 -169 8 -49 1
-76 6 -78 15 -3 7 -23 12 -49 12 -31 0 -43 4 -38 11 5 8 -1 10 -19 7 -15 -3
-28 -1 -29 3 -2 5 -28 18 -58 28 -50 18 -55 18 -59 3 -2 -9 2 -18 8 -20 7 -2
23 -16 36 -30 13 -14 27 -23 31 -19 11 10 34 -13 34 -34 0 -11 5 -19 10 -19 6
0 8 -11 4 -25 -4 -15 -1 -32 6 -40 11 -13 8 -15 -19 -15 -26 0 -31 -4 -31 -24
0 -14 -5 -28 -10 -31 -16 -10 -2 -25 18 -19 9 3 1 -4 -18 -15 -22 -12 -39 -16
-44 -10 -14 13 -26 11 -26 -5 0 -8 -7 -16 -15 -20 -8 -3 -15 -12 -15 -21 0 -8
-9 -15 -20 -15 -11 0 -23 -6 -26 -14 -3 -9 -19 -14 -40 -13 -38 1 -46 14 -11
19 14 2 23 11 25 26 3 22 -12 30 -23 12 -9 -14 -25 -12 -25 3 0 32 22 87 35
87 8 0 15 8 15 19 0 10 12 26 26 36 20 13 23 19 13 31 -6 8 -18 14 -25 14 -20
0 -17 13 7 28 17 11 18 16 8 28 -10 13 -10 17 2 24 11 7 11 12 1 22 -14 14
-17 72 -3 63 5 -3 12 -1 16 5 4 6 -5 10 -19 10 -14 0 -26 5 -26 12 0 16 -41
58 -57 58 -7 0 -13 5 -13 10 0 6 -21 24 -47 40 -81 51 -86 54 -110 79 -22 23
-30 41 -18 41 3 0 38 -22 78 -48z m-1752 -261 c6 -44 6 -61 -2 -90 -6 -24 -5
-39 3 -49 7 -8 12 -47 12 -90 1 -72 2 -77 24 -80 12 -2 22 -8 22 -14 0 -6 -10
-8 -22 -5 l-23 6 23 -19 c12 -10 22 -26 22 -35 0 -9 9 -19 19 -22 11 -3 22
-14 24 -25 5 -16 11 -19 36 -13 23 5 31 3 31 -7 0 -8 3 -9 8 -3 10 15 94 13
99 -2 3 -7 -1 -13 -7 -13 -7 0 -10 -7 -6 -15 4 -10 -1 -15 -16 -15 -12 0 -18
-3 -15 -7 4 -3 -2 -13 -13 -20 -13 -9 -19 -21 -15 -33 6 -20 -16 -28 -102 -36
-39 -4 -57 -1 -68 10 -9 8 -22 13 -29 10 -10 -4 -16 6 -21 35 -7 43 -26 57
-55 41 -24 -13 -33 -13 -25 0 3 6 2 10 -4 10 -5 0 -14 -8 -19 -17 -12 -20 -42
-26 -60 -10 -11 9 -10 13 10 20 l23 9 -24 16 c-13 9 -37 17 -55 18 -17 1 -50
7 -73 12 -33 7 -43 6 -47 -4 -6 -16 3 -46 16 -55 5 -3 -7 -10 -26 -16 -30 -9
-37 -8 -51 7 -10 11 -14 24 -10 29 9 16 25 13 25 -4 0 -8 5 -15 11 -15 6 0 8
7 5 16 -3 9 -6 22 -6 30 0 9 -5 12 -10 9 -18 -11 -39 14 -34 40 3 16 -1 25
-13 28 -14 4 -13 5 4 6 31 1 40 21 9 21 -14 0 -27 4 -30 9 -9 14 5 41 20 41 8
0 17 8 21 18 8 23 44 52 66 52 9 0 32 13 50 30 17 16 41 38 52 48 11 10 36 30
55 44 19 14 54 43 76 64 32 30 50 39 78 40 20 0 36 -2 37 -5z m1512 -321 c3
-11 1 -20 -5 -20 -13 0 -73 -61 -73 -74 0 -6 -13 -12 -28 -14 -20 -2 -27 -8
-23 -18 4 -11 -5 -14 -39 -14 -24 0 -47 -4 -50 -10 -3 -5 -19 -10 -36 -10 -16
0 -29 -4 -29 -9 0 -16 -72 -24 -81 -9 -7 10 -9 10 -9 1 0 -7 -7 -13 -15 -13
-8 0 -15 -7 -15 -16 0 -12 -6 -15 -22 -9 -13 3 -30 8 -38 9 -43 8 -70 36 -35
36 8 0 15 5 15 11 0 17 49 57 78 64 14 3 39 17 56 30 17 13 45 27 61 31 17 4
35 11 42 16 7 5 34 10 60 12 26 1 57 7 68 13 11 7 41 13 66 13 38 0 48 -4 52
-20z m412 -78 c-8 -32 5 -98 16 -81 14 23 33 -4 23 -32 -4 -13 -8 -26 -9 -29
-2 -17 -18 -28 -32 -23 -15 6 -16 5 -3 -9 8 -9 18 -14 22 -12 3 2 4 -5 1 -15
-3 -13 1 -21 14 -24 15 -3 15 -4 -2 -3 -20 1 -57 -28 -52 -41 4 -15 -13 -12
-60 9 -29 13 -70 22 -103 22 -48 1 -55 4 -55 21 0 14 6 19 18 17 31 -5 -21 46
-54 53 -16 4 -29 12 -29 18 1 16 25 47 36 47 5 0 15 14 23 31 17 38 36 46 60
25 22 -20 52 -12 44 11 -5 12 -3 14 6 8 8 -4 17 -2 23 6 7 11 11 11 15 2 7
-18 24 -16 17 1 -6 15 10 21 58 21 25 0 28 -3 23 -23z m2245 -258 c0 -9 -14
-46 -31 -82 -17 -37 -40 -92 -51 -122 -11 -30 -24 -59 -29 -64 -5 -6 -9 -18
-9 -27 0 -10 -3 -19 -7 -21 -5 -1 -21 -20 -36 -40 -48 -65 -73 -44 -62 54 3
29 8 61 11 71 3 10 -2 27 -11 37 -15 17 -14 20 29 50 29 19 46 38 46 51 0 12
12 27 29 37 17 9 32 25 35 36 4 14 10 17 31 12 18 -5 27 -2 31 9 8 20 24 19
24 -1z m-3049 -164 c6 -45 3 -79 -8 -102 -15 -31 -31 -36 -39 -13 -16 39 -54
-3 -64 -72 -6 -35 -4 -42 12 -46 28 -8 21 -27 -10 -27 -16 0 -37 -9 -47 -20
-23 -26 -39 -25 -98 2 -35 17 -46 28 -43 41 3 10 -2 21 -10 24 -8 3 -14 14
-14 24 0 13 -7 19 -21 19 -12 0 -19 5 -16 13 2 6 -1 19 -8 27 -7 8 -15 30 -18
48 -6 28 -4 32 16 33 17 1 18 2 5 6 -40 10 -15 19 30 11 99 -19 114 -20 135
-10 33 16 117 33 128 27 5 -4 9 0 9 7 0 15 59 22 61 8z m459 -530 l25 -7 -25
-11 c-33 -15 -64 -43 -73 -65 -5 -13 -13 -16 -27 -12 -14 5 -20 2 -20 -9 0 -9
6 -16 13 -17 6 0 -3 -5 -22 -10 -19 -6 -35 -18 -38 -30 -3 -10 -14 -19 -24
-19 -24 0 -24 -9 -1 -27 13 -11 14 -13 2 -12 -34 3 -60 -2 -60 -11 0 -5 6 -10
14 -10 26 0 29 -21 7 -51 -14 -19 -24 -49 -26 -79 -5 -63 -25 -84 -81 -85 -23
-1 -49 -7 -57 -13 -8 -7 -57 -15 -113 -17 -55 -3 -136 -7 -181 -10 -51 -3 -83
-1 -83 5 0 6 -20 10 -45 10 -38 0 -48 5 -66 29 -12 16 -32 32 -44 35 -13 3
-32 21 -44 38 -19 30 -19 34 -3 40 14 5 13 7 -5 7 -13 1 -23 7 -23 14 0 7 -9
18 -20 25 -26 16 -25 32 2 32 15 0 19 3 11 11 -5 5 -33 10 -61 11 -47 0 -50 1
-54 29 -5 35 -2 36 22 7 l17 -22 14 22 c17 27 39 29 39 2 0 -11 6 -20 14 -20
20 0 26 45 10 76 -8 14 -14 29 -14 33 0 3 24 24 53 47 49 38 56 40 112 38 33
-1 89 -9 125 -17 36 -9 80 -14 97 -13 18 2 56 -1 85 -5 31 -5 56 -5 63 1 6 5
28 7 48 3 24 -3 42 -1 53 8 9 8 38 13 71 12 37 -1 56 3 59 12 3 7 15 16 27 19
31 8 67 -3 61 -19 -9 -21 14 -28 74 -20 57 8 57 8 23 17 -34 9 -33 22 4 31 28
6 36 6 65 -3z m-135 -800 c3 -5 16 -10 28 -10 12 0 18 -4 12 -8 -5 -4 -11 -14
-12 -22 -1 -8 -5 -25 -8 -37 -6 -18 -2 -23 19 -29 27 -6 36 -23 14 -25 -10 0
-10 -2 0 -6 6 -2 12 -18 12 -34 0 -22 -5 -29 -19 -29 -11 0 -22 -6 -24 -12 -3
-8 -6 -5 -6 5 -1 22 -33 15 -62 -14 -10 -10 -26 -19 -35 -19 -8 0 -12 -4 -9
-10 6 -10 -22 -60 -35 -60 -4 0 -10 9 -13 21 -7 24 -33 20 -29 -5 2 -13 -1
-14 -21 -5 -20 9 -28 6 -62 -26 -34 -31 -41 -34 -51 -20 -11 15 -29 22 -20 7
2 -4 -24 -8 -60 -9 -40 0 -64 4 -65 11 -1 6 -2 16 -3 22 0 5 -13 22 -28 36
-16 14 -28 30 -28 37 0 6 -7 11 -15 11 -8 0 -15 -7 -15 -15 0 -8 -7 -15 -15
-15 -9 0 -15 9 -15 21 0 19 -4 20 -42 14 -24 -4 -49 -12 -55 -17 -22 -18 -28
20 -7 43 13 15 19 36 19 72 l0 52 39 6 c22 4 45 14 52 24 10 13 32 17 111 20
54 2 121 6 148 9 28 3 78 6 112 7 35 0 65 4 67 7 7 11 114 13 121 2z m2396
-308 c7 -19 6 -33 -3 -51 -10 -19 -10 -25 0 -28 6 -3 12 -9 12 -14 0 -6 -4 -8
-8 -5 -4 2 -14 1 -22 -5 -11 -6 -8 -9 12 -9 22 0 31 -7 44 -37 29 -67 56 -147
70 -208 29 -120 28 -112 11 -95 -42 40 -137 242 -137 291 0 15 -7 32 -15 39
-8 7 -15 22 -15 34 0 11 -9 34 -20 51 -17 26 -18 31 -4 46 23 26 64 21 75 -9z
m-1555 -1247 c2 -26 -1 -35 -13 -35 -12 0 -13 -3 -4 -14 11 -13 15 -12 33 6
17 17 19 24 9 39 -8 13 -8 19 0 19 14 0 43 -30 35 -37 -3 -3 -1 -12 5 -20 9
-10 8 -13 -5 -13 -9 0 -16 -5 -16 -11 0 -5 4 -8 10 -4 5 3 14 -13 21 -35 7
-22 17 -40 22 -40 6 0 6 -5 0 -12 -5 -7 -8 -44 -7 -83 1 -41 -2 -73 -9 -77
-14 -8 -27 -110 -16 -124 10 -12 1 -158 -10 -162 -4 -1 -6 -31 -5 -65 2 -34
-1 -84 -6 -112 -5 -27 -11 -75 -13 -105 -3 -30 -8 -64 -13 -75 -5 -11 -9 -48
-9 -82 0 -35 -4 -63 -8 -63 -5 0 -6 -8 -2 -19 3 -11 0 -21 -8 -24 -9 -3 -14
-20 -14 -46 0 -38 -19 -71 -42 -71 -6 0 -11 -7 -11 -15 0 -8 -4 -15 -10 -15
-13 0 -13 13 0 26 6 6 12 42 14 80 2 38 7 83 10 99 4 17 6 77 6 135 0 58 4
120 9 138 6 19 6 44 1 62 -11 38 -13 161 -4 263 5 54 3 77 -5 77 -6 0 -11 5
-11 11 0 5 5 7 10 4 6 -3 10 -1 10 4 0 6 -4 11 -10 11 -5 0 -10 18 -10 40 0
22 4 40 8 40 5 0 7 14 6 31 -2 23 3 32 19 39 12 5 17 9 10 9 -6 1 -9 9 -6 19
3 14 -4 22 -28 32 -18 8 -27 16 -20 18 10 3 10 6 2 12 -19 11 -2 90 19 90 14
0 16 8 13 44 -3 37 -1 45 14 48 24 6 25 4 29 -37z m-331 -679 c44 -11 50 -20
47 -68 -2 -23 -4 -73 -4 -110 1 -63 -8 -83 -23 -58 -11 18 -27 11 -22 -10 7
-26 -8 -25 -27 2 -14 20 -16 20 -22 4 -6 -15 -10 -11 -26 20 -10 22 -20 55
-23 74 -2 19 -7 55 -11 79 -6 38 -5 43 9 38 11 -4 14 -2 11 7 -3 7 2 19 11 26
10 8 15 9 15 1 0 -6 5 -11 10 -11 6 0 10 8 10 18 0 10 3 13 8 6 4 -6 20 -14
37 -18z"/>
<path d="M8590 10785 c-7 -8 -14 -32 -16 -52 -8 -92 -27 -179 -40 -194 -8 -8
-14 -29 -14 -46 0 -17 -7 -36 -15 -43 -8 -7 -15 -27 -15 -45 0 -20 -6 -35 -15
-39 -8 -3 -15 -14 -15 -25 0 -11 -9 -43 -20 -71 -11 -28 -20 -60 -20 -70 0
-11 -8 -39 -19 -63 -78 -177 -84 -223 -46 -361 30 -111 67 -171 96 -156 9 5
34 28 55 51 22 23 47 50 57 61 9 10 17 22 17 26 0 5 11 19 25 32 17 16 23 30
19 46 -5 19 -2 22 14 18 10 -3 26 2 36 11 16 16 18 16 39 -9 13 -14 29 -26 37
-26 21 0 65 68 66 102 3 52 4 56 24 61 11 3 20 13 20 23 0 9 7 25 14 33 14 15
69 139 83 184 3 10 28 61 54 114 27 52 49 100 49 106 0 6 6 18 14 26 8 9 18
36 24 61 6 25 15 61 21 80 5 19 16 59 24 89 9 33 24 62 38 72 24 18 23 19 -59
19 -47 0 -81 -4 -78 -9 3 -5 9 -48 12 -95 6 -78 5 -88 -12 -101 -10 -8 -14
-15 -7 -15 7 0 10 -7 7 -15 -5 -12 -10 -13 -20 -4 -17 14 -20 173 -4 213 l9
26 -213 -1 c-173 0 -217 -3 -226 -14z"/>
<path d="M8162 9455 c-6 -12 -5 -26 5 -46 14 -28 66 -73 75 -64 2 3 3 -11 2
-30 -3 -37 11 -54 29 -36 6 6 20 11 32 10 18 0 18 -1 2 -8 -15 -5 -12 -9 17
-19 27 -10 41 -10 56 -2 13 7 38 9 61 5 30 -5 39 -4 39 8 0 10 8 13 28 9 19
-4 22 -7 10 -10 -29 -6 -21 -18 25 -36 31 -12 38 -19 28 -25 -11 -7 -10 -12 8
-27 11 -10 21 -24 21 -31 0 -18 10 -16 26 5 17 21 18 64 2 80 -9 9 -9 15 0 24
16 16 15 28 -2 28 -7 0 -19 7 -26 15 -7 8 -27 17 -46 21 -19 3 -34 12 -34 20
0 20 -28 17 -33 -3 -4 -17 -5 -17 -6 0 -1 10 -9 17 -20 17 -10 0 -21 7 -25 15
-3 8 -12 15 -19 15 -8 0 -22 9 -31 19 -10 11 -32 23 -50 27 -17 3 -36 10 -42
15 -6 5 -24 8 -40 8 -16 0 -41 2 -55 6 -20 5 -29 2 -37 -10z"/>
<path d="M8998 9265 c-14 -16 -28 -23 -38 -19 -25 11 -74 4 -83 -11 -6 -12
-12 -12 -27 -3 -25 16 -35 5 -20 -21 8 -16 17 -20 37 -15 19 5 24 3 21 -7 -3
-8 -14 -14 -26 -14 -11 0 -24 -4 -28 -8 -4 -4 0 -7 9 -7 10 0 26 -6 38 -12 17
-11 22 -10 30 5 6 9 19 17 29 17 24 0 36 20 19 31 -11 7 -9 9 7 9 11 0 23 -3
26 -6 8 -7 -22 -65 -31 -60 -4 3 -12 -4 -18 -14 -11 -17 -9 -18 30 -13 23 3
46 9 52 14 13 13 22 11 29 -7 4 -12 2 -15 -9 -10 -12 4 -14 0 -9 -22 9 -38 11
-38 29 -3 16 32 34 41 36 19 1 -7 2 -22 3 -33 0 -11 8 -20 16 -20 11 0 16 12
17 40 1 22 4 54 7 72 3 20 0 35 -8 42 -8 7 -12 21 -9 31 5 17 0 20 -30 20 -19
0 -40 7 -47 15 -17 21 -27 19 -52 -10z"/>
<path d="M1454 2538 c-7 -22 -7 -22 -15 -3 -4 11 -8 14 -8 8 -1 -8 -11 -11
-31 -6 -35 7 -39 -6 -9 -33 14 -12 18 -25 14 -41 -3 -14 -1 -23 6 -23 6 0 35
-26 64 -57 58 -62 51 -63 71 10 3 10 0 17 -9 17 -22 0 -70 99 -56 116 11 13 5
34 -11 34 -5 0 -12 -10 -16 -22z"/>
<path d="M6672 1356 c-7 -18 -12 -42 -12 -54 0 -12 -4 -22 -9 -22 -13 0 -23
-32 -13 -39 5 -3 14 -16 21 -28 16 -31 41 -30 41 2 0 22 9 30 33 26 4 -1 17 4
28 10 19 10 20 8 17 -22 -3 -29 1 -34 45 -58 49 -27 86 -74 67 -86 -5 -3 -10
-19 -10 -36 0 -28 1 -29 51 -29 49 0 51 1 47 25 -3 14 -1 25 6 25 19 1 59 37
48 44 -6 3 -17 -1 -25 -9 -16 -15 -52 -21 -44 -7 9 14 -38 97 -60 107 -12 5
-23 20 -25 33 -2 17 -17 31 -48 48 -25 13 -59 41 -76 61 -41 49 -67 52 -82 9z"/>
</g>
</svg>
